{"title":"Jungle Book (2016) 720p Blu-ray x264 AAC 5.1 Hindi-English DDR","uid":15690563,"size":1922999333,"categoryP":"video","categoryS":"hd___movies","magnet":"?xt=urn:btih:742385d8472d19d8eb16a6a4f971445d28420705&amp;dn=Jungle+Book+%282016%29+720p+Blu-ray+x264+AAC+5.1+Hindi-English+DDR&amp;tr=udp%3A%2F%2Ftracker.leechers-paradise.org%3A6969&amp;tr=udp%3A%2F%2Fzer0day.ch%3A1337&amp;tr=udp%3A%2F%2Fopen.demonii.com%3A1337&amp;tr=udp%3A%2F%2Ftracker.coppersurfer.tk%3A6969&amp;tr=udp%3A%2F%2Fexodus.desync.com%3A6969","seeders":11,"leechers":8,"uploader":"SaM","files":3,"time":1472398761,"description":"720p Blu-ray Rip x264\r\n\r\nOriginal Blu-ray AAC 5.1 encoded Hindi &amp; English\r\n\r\nHindi, Arabic, English &amp; impaired Subtitles \r\n \nhttp://extraimago.com/image/wjPu \nhttp://extraimago.com/image/wjPv \nhttp://extraimago.com/image/wjPA \nhttp://extraimago.com/image/wjPW \nhttp://extraimago.com/image/wjPf \nhttp://extraimago.com/image/wjX8 \nhttp://extraimago.com/image/wjXa \nhttp://extraimago.com/image/wjXw \nhttp://extraimago.com/image/wjX2\r\n\r\nSpecs:\r\n\r\nSource: Indian BD50 @ DDR\r\n\r\nFormat : Matroska\r\nFile size : 1.75 GiB\r\nDuration : 1 h 45 min\r\nOverall bit rate : 2 369 kb/s\r\n\r\nVideo\r\nFormat : AVC\r\nFormat/Info : Advanced Video Codec\r\nFormat profile :   \r\nFormat settings, CABAC : Yes\r\nFormat settings, ReFrames : 9 frames\r\nCodec ID : V_MPEG4/ISO/AVC\r\nDuration : 1h 45mn\r\nBit rate : 1 963 Kbps\r\nWidth : 1 280 pixels\r\nHeight : 696 pixels\r\nDisplay aspect ratio : 1.85:1\r\nFrame rate mode : Constant\r\nFrame rate : 23.976 (24000/1001) fps\r\ncolor space : YUV\r\nChroma subsampling : 4:2:0\r\nBit depth : 8 bits\r\nScan type : Progressive\r\nBits/(Pixel*Frame) : 0.092\r\nStream size : 1.45 GiB (83%)\r\ncolor primaries : BT.709\r\nTransfer characteristics : BT.709\r\nMatrix coefficients : BT.709\r\n\r\nAudio #1\r\nFormat : AAC\r\nFormat/Info : Advanced Audio Codec\r\nFormat profile : LC\r\nCodec ID : A_AAC\r\nDuration : 1 h 45 min\r\nBit rate : 192 kb/s\r\nChannel(s) : 6 channels\r\nChannel positions : Front: L C R, Side: L R, LFE\r\nSampling rate : 48.0 kHz\r\nFrame rate : 46.875 FPS (1024 spf)\r\nCompression mode : Lossy\r\nDelay relative to video : 9 ms\r\nStream size : 145 MiB (8%)\r\nLanguage : Hindi\r\nDefault : Yes\r\nForced : No\r\n\r\n\r\n\r\nAudio #2\r\nFormat : AAC\r\nFormat/Info : Advanced Audio Codec\r\nFormat profile : LC\r\nCodec ID : A_AAC\r\nDuration : 1h 45mn\r\nBit rate : 192 Kbps\r\nChannel(s) : 6 channels\r\nChannel positions : Front: L C R, Side: L R, LFE\r\nSampling rate : 48.0 KHz\r\nFrame rate : 46.875 fps (1024 spf)\r\nCompression mode : Lossy\r\nDelay relative to video : 9ms\r\nStream size : 145 MiB (8%)\r\nLanguage : English\r\nDefault : No\r\nForced : No\r\n\r\n\r\nChapters : YES","torrent":{"xt":"urn:btih:742385d8472d19d8eb16a6a4f971445d28420705","amp;dn":"Jungle+Book+%282016%29+720p+Blu-ray+x264+AAC+5.1+Hindi-English+DDR","amp;tr":["udp%3A%2F%2Ftracker.leechers-paradise.org%3A6969","udp%3A%2F%2Fzer0day.ch%3A1337","udp%3A%2F%2Fopen.demonii.com%3A1337","udp%3A%2F%2Ftracker.coppersurfer.tk%3A6969","udp%3A%2F%2Fexodus.desync.com%3A6969"],"infoHash":"742385d8472d19d8eb16a6a4f971445d28420705","infoHashBuffer":{"type":"Buffer","data":[116,35,133,216,71,45,25,216,235,22,166,164,249,113,68,93,40,66,7,5]},"announce":[],"urlList":[]}}